<mxfile host="app.diagrams.net" agent="Mozilla/5.0 (X11; CrOS x86_64 14541.0.0) AppleWebKit/537.36 (KHTML, like Gecko) Chrome/127.0.0.0 Safari/537.36" version="24.7.10">
  <diagram name="Page-1" id="jq5Ij8cCOgVhDJpeunac">
    <mxGraphModel dx="1200" dy="677" grid="1" gridSize="10" guides="1" tooltips="1" connect="1" arrows="1" fold="1" page="1" pageScale="1" pageWidth="827" pageHeight="1169" math="0" shadow="0">
      <root>
        <mxCell id="0" />
        <mxCell id="1" parent="0" />
        <mxCell id="kfOthMzVI9oGOoKYbj8Y-1" value="" style="rounded=0;whiteSpace=wrap;html=1;" vertex="1" parent="1">
          <mxGeometry x="274" y="80" width="280" height="510" as="geometry" />
        </mxCell>
        <mxCell id="kfOthMzVI9oGOoKYbj8Y-2" value="Login" style="ellipse;whiteSpace=wrap;html=1;" vertex="1" parent="1">
          <mxGeometry x="360" y="130" width="120" height="80" as="geometry" />
        </mxCell>
        <mxCell id="kfOthMzVI9oGOoKYbj8Y-3" value="Mengisi presensi" style="ellipse;whiteSpace=wrap;html=1;" vertex="1" parent="1">
          <mxGeometry x="360" y="240" width="120" height="80" as="geometry" />
        </mxCell>
        <mxCell id="kfOthMzVI9oGOoKYbj8Y-4" value="Laporan presensi" style="ellipse;whiteSpace=wrap;html=1;" vertex="1" parent="1">
          <mxGeometry x="354" y="350" width="120" height="80" as="geometry" />
        </mxCell>
        <mxCell id="kfOthMzVI9oGOoKYbj8Y-5" value="Menerima laporan presensi" style="ellipse;whiteSpace=wrap;html=1;" vertex="1" parent="1">
          <mxGeometry x="354" y="460" width="120" height="80" as="geometry" />
        </mxCell>
        <mxCell id="kfOthMzVI9oGOoKYbj8Y-20" value="Guru piket" style="shape=umlActor;verticalLabelPosition=bottom;verticalAlign=top;html=1;outlineConnect=0;" vertex="1" parent="1">
          <mxGeometry x="660" y="240" width="90" height="150" as="geometry" />
        </mxCell>
        <mxCell id="kfOthMzVI9oGOoKYbj8Y-22" value="" style="endArrow=none;html=1;rounded=0;entryX=0;entryY=0.5;entryDx=0;entryDy=0;" edge="1" parent="1" target="kfOthMzVI9oGOoKYbj8Y-2">
          <mxGeometry width="50" height="50" relative="1" as="geometry">
            <mxPoint x="130" y="286.76" as="sourcePoint" />
            <mxPoint x="244.55999999999995" y="200" as="targetPoint" />
          </mxGeometry>
        </mxCell>
        <mxCell id="kfOthMzVI9oGOoKYbj8Y-23" value="" style="endArrow=none;html=1;rounded=0;" edge="1" parent="1" target="kfOthMzVI9oGOoKYbj8Y-3">
          <mxGeometry width="50" height="50" relative="1" as="geometry">
            <mxPoint x="130" y="287" as="sourcePoint" />
            <mxPoint x="245" y="200" as="targetPoint" />
          </mxGeometry>
        </mxCell>
        <mxCell id="kfOthMzVI9oGOoKYbj8Y-24" value="" style="endArrow=none;html=1;rounded=0;entryX=0;entryY=0.5;entryDx=0;entryDy=0;" edge="1" parent="1" target="kfOthMzVI9oGOoKYbj8Y-4">
          <mxGeometry width="50" height="50" relative="1" as="geometry">
            <mxPoint x="130" y="290" as="sourcePoint" />
            <mxPoint x="360" y="291" as="targetPoint" />
          </mxGeometry>
        </mxCell>
        <mxCell id="kfOthMzVI9oGOoKYbj8Y-26" value="Sekretaris" style="shape=umlActor;verticalLabelPosition=bottom;verticalAlign=top;html=1;outlineConnect=0;" vertex="1" parent="1">
          <mxGeometry x="40" y="240" width="90" height="150" as="geometry" />
        </mxCell>
        <mxCell id="kfOthMzVI9oGOoKYbj8Y-27" value="" style="endArrow=none;html=1;rounded=0;exitX=1;exitY=0.5;exitDx=0;exitDy=0;" edge="1" parent="1" source="kfOthMzVI9oGOoKYbj8Y-2" target="kfOthMzVI9oGOoKYbj8Y-20">
          <mxGeometry width="50" height="50" relative="1" as="geometry">
            <mxPoint x="490" y="373.38" as="sourcePoint" />
            <mxPoint x="720" y="256.62" as="targetPoint" />
          </mxGeometry>
        </mxCell>
        <mxCell id="kfOthMzVI9oGOoKYbj8Y-28" value="" style="endArrow=none;html=1;rounded=0;exitX=0.973;exitY=0.262;exitDx=0;exitDy=0;exitPerimeter=0;" edge="1" parent="1" source="kfOthMzVI9oGOoKYbj8Y-5">
          <mxGeometry width="50" height="50" relative="1" as="geometry">
            <mxPoint x="474" y="500" as="sourcePoint" />
            <mxPoint x="660" y="290" as="targetPoint" />
          </mxGeometry>
        </mxCell>
        <mxCell id="kfOthMzVI9oGOoKYbj8Y-29" value="Use Case" style="text;html=1;align=center;verticalAlign=middle;resizable=0;points=[];autosize=1;strokeColor=none;fillColor=none;" vertex="1" parent="1">
          <mxGeometry x="374" y="90" width="80" height="30" as="geometry" />
        </mxCell>
      </root>
    </mxGraphModel>
  </diagram>
</mxfile>
